<?xml version="1.0" encoding="UTF-8"?><svg id="Layer_2" xmlns="http://www.w3.org/2000/svg" viewBox="0 0 500.15 43.69"><defs><style>.cls-1{fill:#f5f7ff;}.cls-1,.cls-2{stroke-width:0px;}.cls-2{fill:#4a7bff;}</style></defs><g id="Layer_1-2"><path class="cls-1" d="M0,43.11V.61h8.23v36.57h21.29v5.93H0Z"/><path class="cls-1" d="M84.11,43.11h-28.39V.61h28.39v5.87h-20.16v11.54h18.89v5.84h-18.89v13.34h20.16v5.9Z"/><path class="cls-2" d="M149.47,43.11h-9.36l-12.62-17.38-12.69,17.38h-8.81l16.66-22.03L107.09.61h9.12l11.66,16.1L139.46.61h8.81l-15.6,20.67,16.8,21.83Z"/><path class="cls-1" d="M187.84.61c4.32,0,7.89.45,10.72,1.35,2.82.9,4.93,2.26,6.31,4.08,1.38,1.82,2.07,4.13,2.07,6.92,0,2.09-.46,3.88-1.37,5.36-.91,1.48-2.11,2.71-3.6,3.68-1.49.97-3.07,1.73-4.77,2.3l14.23,18.81h-9.29l-12.14-17.01h-8.02v17.01h-8.23V.61h14.09ZM187.29,6.45h-5.31v13.87h5.69c3.79,0,6.55-.6,8.28-1.8,1.73-1.2,2.59-2.97,2.59-5.32s-.92-4.18-2.76-5.2c-1.84-1.03-4.67-1.54-8.49-1.54Z"/><path class="cls-1" d="M236.15,43.11V.61h8.23v42.5h-8.23Z"/><path class="cls-1" d="M295.37,20.03h18.69v21.34c-2.63.74-5.34,1.31-8.14,1.71-2.8.41-5.96.61-9.48.61-5.1,0-9.41-.86-12.93-2.57s-6.2-4.2-8.02-7.46c-1.83-3.26-2.74-7.2-2.74-11.83s1.02-8.29,3.05-11.55c2.03-3.27,4.99-5.79,8.88-7.59,3.89-1.79,8.59-2.69,14.13-2.69,2.72,0,5.35.23,7.9.7,2.55.46,4.89,1.08,7.01,1.86l-2.91,5.76c-1.69-.66-3.58-1.22-5.68-1.69-2.09-.46-4.27-.7-6.53-.7-3.59,0-6.68.66-9.27,1.98-2.59,1.32-4.59,3.17-5.98,5.55-1.39,2.38-2.09,5.2-2.09,8.46s.56,5.93,1.68,8.31,2.88,4.24,5.26,5.57,5.48,1.99,9.28,1.99c1.87,0,3.48-.09,4.82-.26,1.34-.17,2.57-.37,3.69-.58v-10.93h-10.6v-5.99Z"/><path class="cls-1" d="M383.19,43.11h-8.23v-19.19h-23.08v19.19h-8.23V.61h8.23v17.38h23.08V.61h8.23v42.5Z"/><path class="cls-1" d="M431.36,43.11h-8.26V6.54h-14.68V.61h37.58v5.93h-14.64v36.57Z"/><path class="cls-1" d="M500.15,31.54c0,2.52-.73,4.69-2.18,6.51-1.45,1.82-3.53,3.22-6.24,4.19s-5.94,1.45-9.69,1.45c-1.83,0-3.58-.09-5.25-.26-1.67-.17-3.24-.43-4.71-.77s-2.83-.75-4.06-1.24v-6.57c2.06.76,4.34,1.44,6.86,2.05,2.51.61,5.07.92,7.68.92,2.13,0,3.89-.24,5.28-.71,1.39-.47,2.44-1.15,3.14-2.04.7-.88,1.05-1.91,1.05-3.1,0-1.26-.4-2.32-1.2-3.18-.8-.86-2.01-1.66-3.62-2.4-1.61-.74-3.64-1.52-6.09-2.35-1.65-.54-3.21-1.17-4.7-1.89-1.49-.72-2.81-1.56-3.98-2.53-1.17-.97-2.09-2.12-2.78-3.46-.69-1.34-1.03-2.9-1.03-4.68,0-2.4.69-4.46,2.06-6.18,1.37-1.71,3.3-3.03,5.78-3.94,2.48-.91,5.38-1.37,8.69-1.37,2.63,0,5.1.24,7.42.71s4.6,1.13,6.84,1.96l-2.61,5.64c-2.08-.72-4.08-1.29-6-1.73-1.92-.44-3.89-.65-5.9-.65-1.74,0-3.21.22-4.42.67-1.21.45-2.13,1.08-2.76,1.89-.63.81-.94,1.76-.94,2.85,0,1.26.36,2.31,1.08,3.14.72.83,1.84,1.6,3.36,2.3,1.52.7,3.48,1.47,5.88,2.33,2.77.97,5.11,1.99,7.05,3.05,1.93,1.07,3.41,2.34,4.44,3.82,1.03,1.48,1.54,3.34,1.54,5.57Z"/></g></svg>