<?xml version="1.0" encoding="UTF-8"?><svg id="Layer_2" xmlns="http://www.w3.org/2000/svg" viewBox="0 0 187.25 165.02"><defs><style>.cls-1{fill:#011444;}.cls-1,.cls-2{stroke-width:0px;}.cls-2{fill:#043afd;}</style></defs><g id="Layer_1-2"><g id="_54cuMC"><path class="cls-1" d="M116.93,164.99c-1.75,0-3.24,0-4.72,0-36.96,0-73.93,0-110.89.03-1,0-1.31-.18-1.31-1.26C.03,109.65.03,55.54,0,1.43,0,.31.24,0,1.4,0c8.97.05,17.93.05,26.9,0,1.01,0,1.2.3,1.2,1.25-.02,44.71-.02,89.42-.02,134.13,0,2.6,0,2.62,2.66,2.62,20.17,0,40.35.01,60.52-.01,1,0,1.62.3,2.27,1.06,7.03,8.32,14.1,16.6,21.17,24.89.22.26.43.54.83,1.05Z"/><path class="cls-1" d="M187.25,164.87c-.38.22-.77.13-1.15.13-10.97,0-21.94,0-32.91.01-.65,0-1.08-.19-1.51-.68-12.46-14.33-24.93-28.64-37.4-42.96-4.67-5.36-9.36-10.72-14.01-16.11-.66-.76-.98-.76-1.62.04-5.23,6.44-10.51,12.83-15.76,19.25-.36.45-.7.74-1.35.74-10.3-.03-20.6-.02-30.9-.03-.3,0-.6,0-1.18,0,1.69-2.12,3.19-4.01,4.71-5.88,9.31-11.43,18.61-22.86,27.96-34.26.71-.86.62-1.31-.06-2.1-10.44-11.92-20.84-23.87-31.25-35.81-2.21-2.54-4.41-5.09-6.62-7.65.37-.35.73-.21,1.06-.21,10.3-.01,20.6,0,30.9-.04.92,0,1.49.32,2.08.99,14.75,16.77,29.54,33.49,44.27,50.27,16.44,18.73,32.82,37.52,49.22,56.28,4.97,5.68,9.92,11.38,14.86,17.08.24.28.6.5.66.94Z"/><path class="cls-2" d="M181.97.09c-2.68,3.25-5.21,6.35-7.76,9.44-11.32,13.64-22.63,27.29-33.97,40.92-6.53,7.86-13.11,15.68-19.65,23.53-.64.77-.97.92-1.71.04-4.84-5.69-9.73-11.33-14.64-16.96-.49-.56-.51-.87-.03-1.46,13.67-16.8,27.32-33.61,40.97-50.42,1.21-1.5,2.42-2.99,3.6-4.52.34-.44.69-.65,1.27-.65,10.42.02,20.84.01,31.25.01.15,0,.29.03.66.06Z"/></g></g></svg>