<?xml version="1.0" encoding="UTF-8"?><svg id="Layer_2" xmlns="http://www.w3.org/2000/svg" viewBox="0 0 500.15 275.07"><defs><style>.cls-1{fill:#011444;}.cls-1,.cls-2{stroke-width:0px;}.cls-2{fill:#043afd;}</style></defs><g id="Layer_1-2"><path class="cls-1" d="M0,235.09v-42.5h8.23v36.57h21.29v5.93H0Z"/><path class="cls-1" d="M84.11,235.09h-28.39v-42.5h28.39v5.87h-20.16v11.54h18.89v5.84h-18.89v13.34h20.16v5.9Z"/><path class="cls-2" d="M149.47,235.09h-9.36l-12.62-17.38-12.69,17.38h-8.81l16.66-22.03-15.57-20.46h9.12l11.66,16.1,11.59-16.1h8.81l-15.6,20.67,16.8,21.83Z"/><path class="cls-1" d="M187.84,192.6c4.32,0,7.89.45,10.72,1.35,2.82.9,4.93,2.26,6.31,4.08,1.38,1.82,2.07,4.13,2.07,6.92,0,2.09-.46,3.88-1.37,5.36-.91,1.48-2.11,2.71-3.6,3.68-1.49.97-3.07,1.73-4.77,2.3l14.23,18.81h-9.29l-12.14-17.01h-8.02v17.01h-8.23v-42.5h14.09ZM187.29,198.44h-5.31v13.87h5.69c3.79,0,6.55-.6,8.28-1.8,1.73-1.2,2.59-2.97,2.59-5.32s-.92-4.18-2.76-5.2c-1.84-1.03-4.67-1.54-8.49-1.54Z"/><path class="cls-1" d="M236.15,235.09v-42.5h8.23v42.5h-8.23Z"/><path class="cls-1" d="M295.37,212.01h18.69v21.34c-2.63.74-5.34,1.31-8.14,1.71-2.8.41-5.96.61-9.48.61-5.1,0-9.41-.86-12.93-2.57s-6.2-4.2-8.02-7.46c-1.83-3.26-2.74-7.2-2.74-11.83s1.02-8.29,3.05-11.55c2.03-3.27,4.99-5.79,8.88-7.59,3.89-1.79,8.59-2.69,14.13-2.69,2.72,0,5.35.23,7.9.7,2.55.46,4.89,1.08,7.01,1.86l-2.91,5.76c-1.69-.66-3.58-1.22-5.68-1.69-2.09-.46-4.27-.7-6.53-.7-3.59,0-6.68.66-9.27,1.98-2.59,1.32-4.59,3.17-5.98,5.55-1.39,2.38-2.09,5.2-2.09,8.46s.56,5.93,1.68,8.31,2.88,4.24,5.26,5.57,5.48,1.99,9.28,1.99c1.87,0,3.48-.09,4.82-.26,1.34-.17,2.57-.37,3.69-.58v-10.93h-10.6v-5.99Z"/><path class="cls-1" d="M383.19,235.09h-8.23v-19.19h-23.08v19.19h-8.23v-42.5h8.23v17.38h23.08v-17.38h8.23v42.5Z"/><path class="cls-1" d="M431.36,235.09h-8.26v-36.57h-14.68v-5.93h37.58v5.93h-14.64v36.57Z"/><path class="cls-1" d="M500.15,223.52c0,2.52-.73,4.69-2.18,6.51-1.45,1.82-3.53,3.22-6.24,4.19s-5.94,1.45-9.69,1.45c-1.83,0-3.58-.09-5.25-.26-1.67-.17-3.24-.43-4.71-.77s-2.83-.75-4.06-1.24v-6.57c2.06.76,4.34,1.44,6.86,2.05,2.51.61,5.07.92,7.68.92,2.13,0,3.89-.24,5.28-.71,1.39-.47,2.44-1.15,3.14-2.04.7-.88,1.05-1.91,1.05-3.1,0-1.26-.4-2.32-1.2-3.18-.8-.86-2.01-1.66-3.62-2.4-1.61-.74-3.64-1.52-6.09-2.35-1.65-.54-3.21-1.17-4.7-1.89-1.49-.72-2.81-1.56-3.98-2.53-1.17-.97-2.09-2.12-2.78-3.46-.69-1.34-1.03-2.9-1.03-4.68,0-2.4.69-4.46,2.06-6.18,1.37-1.71,3.3-3.03,5.78-3.94,2.48-.91,5.38-1.37,8.69-1.37,2.63,0,5.1.24,7.42.71s4.6,1.13,6.84,1.96l-2.61,5.64c-2.08-.72-4.08-1.29-6-1.73-1.92-.44-3.89-.65-5.9-.65-1.74,0-3.21.22-4.42.67-1.21.45-2.13,1.08-2.76,1.89-.63.81-.94,1.76-.94,2.85,0,1.26.36,2.31,1.08,3.14.72.83,1.84,1.6,3.36,2.3,1.52.7,3.48,1.47,5.88,2.33,2.77.97,5.11,1.99,7.05,3.05,1.93,1.07,3.41,2.34,4.44,3.82,1.03,1.48,1.54,3.34,1.54,5.57Z"/><path class="cls-1" d="M104.43,268.3l3.4-5.54h2.54l-4.76,7.42v4.72h-2.35v-4.64l-4.76-7.5h2.56l3.38,5.54Z"/><path class="cls-1" d="M129.98,268.81c0,.94-.14,1.79-.42,2.55-.28.77-.69,1.43-1.25,1.98s-1.25.98-2.09,1.27-1.82.44-2.94.44-2.14-.15-2.98-.44c-.84-.3-1.54-.72-2.09-1.27-.55-.55-.96-1.22-1.23-1.99-.27-.77-.41-1.62-.41-2.57,0-1.25.24-2.34.73-3.28.48-.93,1.22-1.66,2.22-2.18,1-.52,2.26-.78,3.78-.78s2.73.26,3.71.77c.99.52,1.73,1.24,2.22,2.18.49.94.74,2.04.74,3.3ZM119.04,268.81c0,.94.15,1.75.45,2.43.3.68.76,1.21,1.39,1.58s1.43.55,2.41.55,1.78-.18,2.41-.55c.62-.37,1.08-.89,1.37-1.58.29-.68.44-1.49.44-2.43,0-1.42-.33-2.53-1-3.34s-1.73-1.21-3.19-1.21c-.98,0-1.78.18-2.42.55s-1.1.89-1.4,1.57c-.3.68-.45,1.49-.45,2.43Z"/><path class="cls-1" d="M149.32,262.76v7.86c0,.85-.21,1.61-.63,2.28s-1.06,1.2-1.91,1.59c-.85.39-1.92.58-3.2.58-1.83,0-3.23-.41-4.19-1.22-.96-.82-1.44-1.9-1.44-3.26v-7.82h2.36v7.65c0,1.01.28,1.76.84,2.24.56.48,1.4.72,2.52.72.76,0,1.39-.12,1.88-.34.49-.23.85-.57,1.08-1.01.24-.45.35-.98.35-1.62v-7.64h2.34Z"/><path class="cls-1" d="M162.01,262.76c1.23,0,2.25.13,3.06.39.81.26,1.41.65,1.8,1.17.4.52.59,1.18.59,1.98,0,.6-.13,1.11-.39,1.53-.26.42-.6.77-1.03,1.05-.42.28-.88.5-1.36.66l4.07,5.37h-2.65l-3.47-4.86h-2.29v4.86h-2.35v-12.14h4.03ZM161.86,264.43h-1.52v3.96h1.63c1.08,0,1.87-.17,2.37-.51.49-.34.74-.85.74-1.52s-.26-1.19-.79-1.49c-.53-.29-1.33-.44-2.42-.44Z"/><path class="cls-1" d="M197.67,268.72c0,1.37-.3,2.51-.9,3.43-.6.92-1.47,1.61-2.62,2.07-1.14.46-2.52.69-4.13.69h-3.98v-12.14h4.41c1.48,0,2.76.23,3.84.68,1.08.45,1.91,1.12,2.5,2,.59.88.88,1.98.88,3.28ZM195.21,268.77c0-.99-.18-1.81-.55-2.45-.37-.64-.91-1.12-1.63-1.43-.72-.31-1.59-.46-2.63-.46h-2.01v8.81h1.67c1.72,0,3.01-.37,3.87-1.12.86-.75,1.28-1.86,1.28-3.34Z"/><path class="cls-1" d="M205.77,274.9v-12.14h2.35v12.14h-2.35Z"/><path class="cls-1" d="M222.69,268.31h5.34v6.1c-.75.21-1.53.37-2.33.49-.8.12-1.7.17-2.71.17-1.46,0-2.69-.25-3.69-.74-1.01-.49-1.77-1.2-2.29-2.13-.52-.93-.78-2.06-.78-3.38s.29-2.37.87-3.3c.58-.93,1.43-1.66,2.54-2.17s2.46-.77,4.04-.77c.78,0,1.53.07,2.26.2.73.13,1.4.31,2,.53l-.83,1.64c-.48-.19-1.02-.35-1.62-.48-.6-.13-1.22-.2-1.87-.2-1.03,0-1.91.19-2.65.57-.74.38-1.31.91-1.71,1.59-.4.68-.6,1.49-.6,2.42s.16,1.69.48,2.38c.32.68.82,1.21,1.5,1.59.68.38,1.57.57,2.65.57.54,0,.99-.03,1.38-.08.38-.05.73-.11,1.05-.17v-3.12h-3.03v-1.71Z"/><path class="cls-1" d="M236.48,274.9v-12.14h2.35v12.14h-2.35Z"/><path class="cls-1" d="M252.59,274.9h-2.36v-10.45h-4.19v-1.69h10.74v1.69h-4.18v10.45Z"/><path class="cls-1" d="M272.85,274.9l-1.4-3.37h-5.48l-1.4,3.37h-2.48l5.33-12.19h2.61l5.32,12.19h-2.5ZM270.84,269.83l-1.36-3.33c-.05-.14-.13-.35-.23-.61-.1-.26-.2-.53-.29-.81-.1-.28-.18-.51-.25-.7-.07.23-.15.48-.24.76s-.19.54-.27.79-.16.43-.2.56l-1.37,3.33h4.21Z"/><path class="cls-1" d="M282.25,274.9v-12.14h2.35v10.45h6.08v1.69h-8.44Z"/><path class="cls-1" d="M312.43,262.76c1.23,0,2.25.13,3.06.39.81.26,1.41.65,1.8,1.17.4.52.59,1.18.59,1.98,0,.6-.13,1.11-.39,1.53-.26.42-.6.77-1.03,1.05-.42.28-.88.5-1.36.66l4.07,5.37h-2.65l-3.47-4.86h-2.29v4.86h-2.35v-12.14h4.03ZM312.27,264.43h-1.52v3.96h1.63c1.08,0,1.87-.17,2.37-.51.49-.34.74-.85.74-1.52s-.26-1.19-.79-1.49c-.53-.29-1.33-.44-2.42-.44Z"/><path class="cls-1" d="M326.23,274.9v-12.14h2.35v12.14h-2.35Z"/><path class="cls-1" d="M343.15,268.31h5.34v6.1c-.75.21-1.53.37-2.33.49-.8.12-1.7.17-2.71.17-1.46,0-2.69-.25-3.69-.74-1.01-.49-1.77-1.2-2.29-2.13-.52-.93-.78-2.06-.78-3.38s.29-2.37.87-3.3c.58-.93,1.43-1.66,2.54-2.17s2.46-.77,4.04-.77c.78,0,1.53.07,2.26.2.73.13,1.4.31,2,.53l-.83,1.64c-.48-.19-1.02-.35-1.62-.48s-1.22-.2-1.87-.2c-1.03,0-1.91.19-2.65.57-.74.38-1.31.91-1.71,1.59s-.6,1.49-.6,2.42.16,1.69.48,2.38c.32.68.82,1.21,1.5,1.59s1.57.57,2.65.57c.54,0,.99-.03,1.38-.08.38-.05.73-.11,1.05-.17v-3.12h-3.03v-1.71Z"/><path class="cls-1" d="M368.24,274.9h-2.35v-5.48h-6.59v5.48h-2.35v-12.14h2.35v4.97h6.59v-4.97h2.35v12.14Z"/><path class="cls-1" d="M382,274.9h-2.36v-10.45h-4.19v-1.69h10.74v1.69h-4.18v10.45Z"/><path class="cls-1" d="M401.66,271.6c0,.72-.21,1.34-.62,1.86s-1.01.92-1.78,1.2c-.77.28-1.7.42-2.77.42-.52,0-1.02-.02-1.5-.07-.48-.05-.93-.12-1.35-.22s-.81-.21-1.16-.35v-1.88c.59.22,1.24.41,1.96.58.72.17,1.45.26,2.19.26.61,0,1.11-.07,1.51-.2s.7-.33.9-.58.3-.55.3-.88c0-.36-.11-.66-.34-.91-.23-.25-.57-.47-1.03-.68-.46-.21-1.04-.43-1.74-.67-.47-.16-.92-.33-1.34-.54s-.8-.45-1.14-.72c-.33-.28-.6-.61-.79-.99-.2-.38-.29-.83-.29-1.34,0-.69.2-1.28.59-1.77.39-.49.94-.86,1.65-1.12.71-.26,1.54-.39,2.48-.39.75,0,1.46.07,2.12.2s1.31.32,1.96.56l-.75,1.61c-.59-.21-1.17-.37-1.71-.49-.55-.12-1.11-.19-1.69-.19-.5,0-.92.06-1.26.19-.35.13-.61.31-.79.54s-.27.5-.27.81c0,.36.1.66.31.9.21.24.53.46.96.66.43.2.99.42,1.68.66.79.28,1.46.57,2.01.87.55.3.97.67,1.27,1.09.29.42.44.95.44,1.59Z"/><g id="_54cuMC"><path class="cls-1" d="M273.38,164.99c-1.75,0-3.24,0-4.72,0-36.96,0-73.93,0-110.89.03-1,0-1.31-.18-1.31-1.26.03-54.11.03-108.22,0-162.33,0-1.12.24-1.44,1.4-1.43,8.97.05,17.93.05,26.9,0,1.01,0,1.2.3,1.2,1.25-.02,44.71-.02,89.42-.02,134.13,0,2.6,0,2.62,2.66,2.62,20.17,0,40.35.01,60.52-.01,1,0,1.62.3,2.27,1.06,7.03,8.32,14.1,16.6,21.17,24.89.22.26.43.54.83,1.05Z"/><path class="cls-1" d="M343.7,164.87c-.38.22-.77.13-1.15.13-10.97,0-21.94,0-32.91.01-.65,0-1.08-.19-1.51-.68-12.46-14.33-24.93-28.64-37.4-42.96-4.67-5.36-9.36-10.72-14.01-16.11-.66-.76-.98-.76-1.62.04-5.23,6.44-10.51,12.83-15.76,19.25-.36.45-.7.74-1.35.74-10.3-.03-20.6-.02-30.9-.03-.3,0-.6,0-1.18,0,1.69-2.12,3.19-4.01,4.71-5.88,9.31-11.43,18.61-22.86,27.96-34.26.71-.86.62-1.31-.06-2.1-10.44-11.92-20.84-23.87-31.25-35.81-2.21-2.54-4.41-5.09-6.62-7.65.37-.35.73-.21,1.06-.21,10.3-.01,20.6,0,30.9-.04.92,0,1.49.32,2.08.99,14.75,16.77,29.54,33.49,44.27,50.27,16.44,18.73,32.82,37.52,49.22,56.28,4.97,5.68,9.92,11.38,14.86,17.08.24.28.6.5.66.94Z"/><path class="cls-2" d="M338.42.09c-2.68,3.25-5.21,6.35-7.76,9.44-11.32,13.64-22.63,27.29-33.97,40.92-6.53,7.86-13.11,15.68-19.65,23.53-.64.77-.97.92-1.71.04-4.84-5.69-9.73-11.33-14.64-16.96-.49-.56-.51-.87-.03-1.46,13.67-16.8,27.32-33.61,40.97-50.42,1.21-1.5,2.42-2.99,3.6-4.52.34-.44.69-.65,1.27-.65,10.42.02,20.84.01,31.25.01.15,0,.29.03.66.06Z"/></g><rect class="cls-2" x="15.66" y="267.33" width="67.76" height="5"/><rect class="cls-2" x="416.72" y="267.33" width="67.76" height="5"/></g></svg>